<svg width="20" height="21" viewBox="0 0 20 21" fill="none" xmlns="http://www.w3.org/2000/svg">
<path d="M9.99731 4.88124C7.15795 4.88124 4.86644 7.17279 4.86644 10.0122C4.86644 12.8516 7.15795 15.1432 9.99731 15.1432C12.8367 15.1432 15.1282 12.8516 15.1282 10.0122C15.1282 7.17279 12.8367 4.88124 9.99731 4.88124ZM9.99731 13.347C8.16111 13.347 6.66262 11.8484 6.66262 10.0122C6.66262 8.17597 8.16111 6.67745 9.99731 6.67745C11.8335 6.67745 13.332 8.17597 13.332 10.0122C13.332 11.8484 11.8335 13.347 9.99731 13.347ZM15.3383 3.47529C14.6754 3.47529 14.14 4.01065 14.14 4.6736C14.14 5.33655 14.6754 5.87191 15.3383 5.87191C16.0013 5.87191 16.5366 5.33905 16.5366 4.6736C16.5368 4.51618 16.5059 4.36027 16.4458 4.21479C16.3856 4.06932 16.2974 3.93714 16.1861 3.82583C16.0748 3.71451 15.9426 3.62625 15.7971 3.5661C15.6516 3.50595 15.4957 3.47509 15.3383 3.47529ZM19.9989 10.0122C19.9989 8.63127 20.0114 7.26285 19.9338 5.88442C19.8563 4.28334 19.4911 2.86238 18.3203 1.69159C17.147 0.518292 15.7286 0.155547 14.1275 0.0779951C12.7466 0.000442657 11.3782 0.0129511 9.99981 0.0129511C8.61891 0.0129511 7.25051 0.000442657 5.8721 0.0779951C4.27105 0.155547 2.85012 0.520794 1.67935 1.69159C0.506076 2.86488 0.143338 4.28334 0.0657868 5.88442C-0.0117642 7.26535 0.000744099 8.63378 0.000744099 10.0122C0.000744099 11.3906 -0.0117642 12.7616 0.0657868 14.14C0.143338 15.7411 0.508578 17.162 1.67935 18.3328C2.85262 19.5061 4.27105 19.8689 5.8721 19.9464C7.25301 20.024 8.62141 20.0115 9.99981 20.0115C11.3807 20.0115 12.7491 20.024 14.1275 19.9464C15.7286 19.8689 17.1495 19.5036 18.3203 18.3328C19.4936 17.1595 19.8563 15.7411 19.9338 14.14C20.0139 12.7616 19.9989 11.3931 19.9989 10.0122ZM17.7974 15.9112C17.6148 16.3665 17.3947 16.7067 17.0419 17.057C16.6892 17.4097 16.3515 17.6299 15.8962 17.8125C14.5803 18.3353 11.4558 18.2178 9.99731 18.2178C8.53885 18.2178 5.4118 18.3353 4.09593 17.815C3.64064 17.6324 3.30041 17.4122 2.95018 17.0595C2.59745 16.7067 2.37731 16.369 2.19469 15.9137C1.67434 14.5953 1.79192 11.4707 1.79192 10.0122C1.79192 8.55372 1.67434 5.42661 2.19469 4.11072C2.37731 3.65541 2.59745 3.31518 2.95018 2.96495C3.30291 2.61471 3.64064 2.39206 4.09593 2.20944C5.4118 1.68908 8.53885 1.80666 9.99731 1.80666C11.4558 1.80666 14.5828 1.68908 15.8987 2.20944C16.354 2.39206 16.6942 2.61221 17.0444 2.96495C17.3972 3.31768 17.6173 3.65541 17.7999 4.11072C18.3203 5.42661 18.2027 8.55372 18.2027 10.0122C18.2027 11.4707 18.3203 14.5953 17.7974 15.9112Z" fill="#3366FF"/>
</svg>
